<svg xmlns="http://www.w3.org/2000/svg" width="220" height="442" fill="none"><path fill="#5E465D" d="M183.434 0H36.526C17.38 0 1.86 15.463 1.86 34.538v372.924C1.86 426.537 17.38 442 36.526 442h146.908c19.146 0 34.666-15.463 34.666-34.538V34.538C218.1 15.463 202.58 0 183.434 0"/><path fill="#706F6F" d="M183.165 1.028H36.795c-18.723 0-33.903 15.124-33.903 33.777v372.379c0 18.652 15.18 33.776 33.902 33.776h146.371c18.722 0 33.902-15.124 33.902-33.776V34.805c0-18.653-15.18-33.777-33.902-33.777m32.87 405.888c0 18.241-14.84 33.026-33.149 33.026H37.073c-18.31 0-33.149-14.785-33.149-33.026V35.083c0-18.241 14.84-33.026 33.15-33.026h145.822c18.31 0 33.149 14.785 33.149 33.026v371.843z"/><path fill="#1D1D1B" d="M182.565 3.375H37.403c-17.606 0-31.879 14.22-31.879 31.76v371.731c0 17.54 14.273 31.76 31.879 31.76h145.162c17.606 0 31.879-14.22 31.879-31.76V35.136c0-17.541-14.273-31.761-31.879-31.761"/><path fill="url(#a)" d="M219.37 112.926h-1.27v53.273h1.27z"/><path fill="url(#b)" d="M219.371 166.209v-53.263l.63.69c-.32 5.669-.299 46.215 0 51.874l-.63.689z"/><path fill="url(#c)" d="M1.084 101.722H.361v33.746h.723z"/><path fill="url(#d)" d="M.362 135.467v-33.736l-.362.443c.186 3.59.166 29.281 0 32.861l.362.442z"/><path fill="url(#e)" d="M1.86 101.722h-.775v33.746h.775z"/><path fill="url(#f)" d="M1.084 144.172H.361v33.746h.723z"/><path fill="url(#g)" d="M.362 177.917v-33.735l-.362.442c.186 3.591.166 29.281 0 32.861l.362.443z"/><path fill="url(#h)" d="M1.86 144.183h-.775v33.746h.775z"/><path fill="url(#i)" d="M1.084 69.838H.361v17.326h.723z"/><path fill="url(#j)" d="M.362 87.153V69.838L0 70.249c.186 3.396.166 13.098 0 16.483l.362.411z"/><path fill="url(#k)" d="M1.86 69.838h-.775v17.326h.775z"/><defs><linearGradient id="a" x1="218.73" x2="218.73" y1="112.926" y2="166.199" gradientUnits="userSpaceOnUse"><stop stop-color="#68595F"/><stop offset=".02" stop-color="#896E80"/><stop offset=".04" stop-color="#5E3B5B"/><stop offset=".08" stop-color="#2B1D2A"/><stop offset=".11" stop-color="#704A6A"/><stop offset=".9" stop-color="#615060"/><stop offset=".94" stop-color="#2B1D2A"/><stop offset=".96" stop-color="#5E3B5B"/><stop offset=".98" stop-color="#845675"/><stop offset="1" stop-color="#5B4A5C"/></linearGradient><linearGradient id="b" x1="219.681" x2="219.681" y1="112.936" y2="166.199" gradientUnits="userSpaceOnUse"><stop stop-color="#676067"/><stop offset=".06" stop-color="#654E63"/><stop offset=".19" stop-color="#786F77"/><stop offset=".81" stop-color="#786F77"/><stop offset=".92" stop-color="#654E63"/><stop offset="1" stop-color="#676067"/></linearGradient><linearGradient id="c" x1=".723" x2=".723" y1="101.711" y2="135.457" gradientUnits="userSpaceOnUse"><stop stop-color="#68595F"/><stop offset=".02" stop-color="#896E80"/><stop offset=".04" stop-color="#5E3B5B"/><stop offset=".08" stop-color="#2D1E2C"/><stop offset=".11" stop-color="#704A6A"/><stop offset=".9" stop-color="#615060"/><stop offset=".94" stop-color="#2D1E2C"/><stop offset=".96" stop-color="#5E3B5B"/><stop offset=".98" stop-color="#845675"/><stop offset="1" stop-color="#5B4A5C"/></linearGradient><linearGradient id="d" x1=".186" x2=".186" y1="101.721" y2="135.457" gradientUnits="userSpaceOnUse"><stop stop-color="#676067"/><stop offset=".06" stop-color="#654E63"/><stop offset=".19" stop-color="#786F77"/><stop offset=".81" stop-color="#786F77"/><stop offset=".92" stop-color="#654E63"/><stop offset="1" stop-color="#676067"/></linearGradient><linearGradient id="e" x1="1.468" x2="1.468" y1="135.478" y2="101.722" gradientUnits="userSpaceOnUse"><stop stop-color="#68595F"/><stop offset=".05" stop-color="#2D1E2C"/><stop offset=".52" stop-color="#5E3B5B"/><stop offset=".96" stop-color="#2D1E2C"/><stop offset="1" stop-color="#5B4A5C"/></linearGradient><linearGradient id="f" x1="-1317.04" x2="-1317.04" y1="144.172" y2="177.918" gradientUnits="userSpaceOnUse"><stop stop-color="#68595F"/><stop offset=".02" stop-color="#896E80"/><stop offset=".04" stop-color="#5E3B5B"/><stop offset=".08" stop-color="#2D1E2C"/><stop offset=".11" stop-color="#704A6A"/><stop offset=".9" stop-color="#615060"/><stop offset=".94" stop-color="#2D1E2C"/><stop offset=".96" stop-color="#5E3B5B"/><stop offset=".98" stop-color="#845675"/><stop offset="1" stop-color="#5B4A5C"/></linearGradient><linearGradient id="g" x1=".186" x2=".186" y1="144.182" y2="177.917" gradientUnits="userSpaceOnUse"><stop stop-color="#676067"/><stop offset=".06" stop-color="#654E63"/><stop offset=".19" stop-color="#786F77"/><stop offset=".81" stop-color="#786F77"/><stop offset=".92" stop-color="#654E63"/><stop offset="1" stop-color="#676067"/></linearGradient><linearGradient id="h" x1=".001" x2="1.026" y1="177.929" y2="144.182" gradientUnits="userSpaceOnUse"><stop stop-color="#68595F"/><stop offset=".05" stop-color="#2D1E2C"/><stop offset=".52" stop-color="#5E3B5B"/><stop offset=".96" stop-color="#2D1E2C"/><stop offset="1" stop-color="#5B4A5C"/></linearGradient><linearGradient id="i" x1="-1317.04" x2="-1317.04" y1="69.828" y2="87.153" gradientUnits="userSpaceOnUse"><stop stop-color="#68595F"/><stop offset=".02" stop-color="#896E80"/><stop offset=".04" stop-color="#5E3B5B"/><stop offset=".08" stop-color="#2D1E2C"/><stop offset=".11" stop-color="#704A6A"/><stop offset=".9" stop-color="#615060"/><stop offset=".94" stop-color="#2D1E2C"/><stop offset=".96" stop-color="#5E3B5B"/><stop offset=".98" stop-color="#845675"/><stop offset="1" stop-color="#5B4A5C"/></linearGradient><linearGradient id="j" x1=".186" x2=".186" y1="69.838" y2="87.153" gradientUnits="userSpaceOnUse"><stop stop-color="#676067"/><stop offset=".06" stop-color="#654E63"/><stop offset=".19" stop-color="#786F77"/><stop offset=".81" stop-color="#786F77"/><stop offset=".92" stop-color="#654E63"/><stop offset="1" stop-color="#676067"/></linearGradient><linearGradient id="k" x1=".001" x2="1.457" y1="87.164" y2="69.837" gradientUnits="userSpaceOnUse"><stop stop-color="#68595F"/><stop offset=".05" stop-color="#2D1E2C"/><stop offset=".52" stop-color="#5E3B5B"/><stop offset=".96" stop-color="#2D1E2C"/><stop offset="1" stop-color="#5B4A5C"/></linearGradient></defs></svg>