<svg xmlns="http://www.w3.org/2000/svg" width="128" height="128" fill="none"><g fill="#fff" clip-path="url(#a)"><path d="M66.187 114.459c.018 0 .034.013.036.031.281 3.213.56 6.425.85 9.636a99 99 0 0 0 .335 3.071c.096.771-.755.153-.785-.623-.156-4.014-.312-8.048-.47-12.08 0-.019.015-.035.034-.035M102.621 28.4c2.619-2.576 5.239-5.15 7.901-7.766.13-.128.307-.159.428-.022.115.13.138.368.008.485l-8.158 7.337a.107.107 0 0 1-.147-.003zM25.235 99.62h-.001l-7.913 7.784c-.118.117-.252.172-.365.051-.113-.122-.16-.374-.037-.486l8.216-7.391a.034.034 0 0 1 .044-.002zM45.11 2.892l.097-.031a.645.645 0 0 1 .819.435c1.053 3.648 2.098 7.265 3.141 10.883a.06.06 0 0 1-.039.073.056.056 0 0 1-.07-.036c-1.305-3.737-2.607-7.475-3.95-11.322zM3.78 43.44c-.204-.06-.322-.26-.256-.46.067-.203.294-.328.495-.255l10.647 3.86a.06.06 0 0 1-.038.115c-3.602-1.084-7.206-2.165-10.849-3.26zm3.074-8.342c.11-.206.191-.363.289-.548a.154.154 0 0 1 .208-.065l10.101 5.347a.066.066 0 0 1-.058.118zm109.195 32.104h11.381c.23 0 .405.237.379.466-.023.205-.2.32-.407.306-3.793-.259-7.537-.513-11.353-.772m-.917-1.872.001.001c4.104-.106 8.208-.214 12.396-.324.192-.005.354.113.376.304.026.225-.151.444-.377.437l-12.409-.376c-.009 0-.014-.01-.008-.017zM63.468 14.021 62.738.503a.365.365 0 1 1 .73-.02zm36.282 88.852.002.001 7.609 7.731c.122.124.171.274.042.39-.127.114-.376.153-.49.027l-7.194-7.988a.097.097 0 0 1 .002-.131l.028-.029zm27.742-40.055a.375.375 0 1 1 .02.749h-13.916c4.064-.218 8.927-.482 13.896-.75zM20.214 17.292a.763.763 0 0 1 1.07.064l6.944 7.717a.014.014 0 0 1-.001.02.016.016 0 0 1-.022 0l-7.567-7.774a.316.316 0 0 0-.424-.027m38.839 98.884.001.002-.55 11.393a.21.21 0 0 1-.088.16.226.226 0 0 1-.294-.038c-.169-.181-.368-.365-.353-.527.366-3.645.775-7.286 1.173-10.927a.076.076 0 0 1 .084-.067zm5.376-2.117c.199 3.685.46 8.549.729 13.511.01.202-.108.373-.31.382-.209.009-.42-.155-.42-.364v-13.531.002zM.392 65.228a.372.372 0 1 1-.02-.744h13.779zm60.364 62.239c0 .23-.247.402-.476.372-.2-.026-.3-.198-.286-.399.26-3.793.515-7.527.762-11.165zM.384 63.036a.371.371 0 1 1 .002-.742l11.993.368a.03.03 0 0 1 .03.03.03.03 0 0 1-.031.034zm62.246 52.496a.03.03 0 0 1 .014.022c.107 3.976.211 7.953.32 12.012.006.193-.106.355-.298.378-.226.028-.455-.149-.448-.377l.373-12.012c.001-.019.023-.032.04-.023zm20.155 9.618-.42.138a.32.32 0 0 1-.408-.215l-3.067-10.675a.064.064 0 0 1 .042-.079c.034-.01.07.008.081.041l3.771 10.79zm29.084-83.037a.066.066 0 0 1 .029-.088l9.625-4.974c.178-.092.382-.054.487.117.12.197.054.478-.157.572l-9.896 4.405a.07.07 0 0 1-.088-.032m-68.637 82.44s0 .001 0 0l-.606-.251a.13.13 0 0 1-.071-.164l3.964-10.883a.055.055 0 0 1 .066-.033.05.05 0 0 1 .035.065l-3.388 11.265zM11.8 59.081a.05.05 0 0 1-.053.049l-10.269-.491c-.723-.035-1.4-.895-.68-.815q5.479.605 10.958 1.207a.05.05 0 0 1 .044.05m109.188 33.927a.25.25 0 0 1-.15.288c-.213.09-.437.197-.567.129-3.191-1.672-6.362-3.38-9.485-5.194l10.079 4.629a.22.22 0 0 1 .123.148m-35.067 18.867 5.016 9.698c.093.18.057.385-.117.488-.196.117-.477.053-.57-.156l-4.398-9.862a.115.115 0 0 1 .028-.133zM68.89 11.906a.05.05 0 0 1-.049-.055l.551-11.38a.21.21 0 0 1 .112-.177.235.235 0 0 1 .288.06c.16.189.352.38.335.551-.37 3.654-.782 7.305-1.185 10.956a.05.05 0 0 1-.052.045M16.053 85.993c-3.218 1.663-6.437 3.324-9.695 5.006a.37.37 0 0 1-.505-.147.39.39 0 0 1 .176-.542c3.323-1.479 6.623-2.948 9.923-4.415a.05.05 0 0 1 .068.025l.034.072zM67.45.058l.002.001c.166.207.484.426.471.624-.224 3.682-.488 7.363-.747 11.043-.002.037-.06.023-.06-.013V.531c0-.16.08-.309.215-.396l.12-.077zm-1.76.069c-.131 4.214-.263 8.399-.392 12.583q-.001.017-.018.018a.02.02 0 0 1-.02-.018L64.93.355a.223.223 0 0 1 .223-.23h.537zm-28.732 6.34a.37.37 0 0 1 .151-.506.39.39 0 0 1 .536.176l4.412 9.901a.067.067 0 0 1-.032.088.066.066 0 0 1-.087-.03c-1.654-3.195-3.307-6.393-4.98-9.629m60.079 112.314v.001l-.56.304a.163.163 0 0 1-.22-.062l-5.137-8.916a.084.084 0 0 1 .03-.113.087.087 0 0 1 .115.026l5.771 8.76zm-57.381-7.964a.074.074 0 0 1 .036.097c-1.495 3.252-2.992 6.504-4.51 9.801-.088.191-.3.281-.491.191-.196-.092-.29-.336-.189-.528l5.06-9.529a.07.07 0 0 1 .094-.032m48.518-93.621 4.534-9.865a.37.37 0 0 1 .503-.188.394.394 0 0 1 .18.527l-5.052 9.513a.09.09 0 0 1-.115.038l-.049-.023zM84.65 3.498h.001l.13.05c.335.127.506.5.383.836L81.58 14.22a.063.063 0 0 1-.077.039.066.066 0 0 1-.045-.081C82.51 10.655 83.565 7.131 84.65 3.5q0-.002.002 0zM5.902 37.129l.056-.124a.63.63 0 0 1 .852-.308l9.096 4.432a.08.08 0 0 1 .038.1.076.076 0 0 1-.1.041l-9.94-4.139zm102.631 56.185h.001l8.817 5.217c.188.111.259.336.144.52-.117.188-.377.26-.56.136l-8.403-5.675a.11.11 0 0 1-.032-.147zm-90.591-2.091a.084.084 0 0 1-.028.11c-2.778 1.827-5.556 3.657-8.398 5.529a.38.38 0 0 1-.53-.098.396.396 0 0 1 .123-.563l8.717-5.013a.085.085 0 0 1 .116.035M125.203 82.6h-.001l-.16.455a.3.3 0 0 1-.378.186l-10.548-3.416a.065.065 0 0 1 .036-.125l11.051 2.901s.001 0 0 0zM30.872 9.288v-.001l.513-.327a.177.177 0 0 1 .25.06l5.133 8.897c.022.04.01.09-.028.114a.084.084 0 0 1-.116-.024l-5.751-8.719zm62.381 10.177c1.738-2.932 3.474-5.865 5.225-8.818.11-.186.33-.258.514-.143.187.115.26.376.137.558l-5.678 8.404a.11.11 0 0 1-.146.032zm3.921 86.168a.084.084 0 0 1 .116.009l6.806 7.725c.142.161.151.385-.009.528-.168.149-.451.147-.589-.03l-6.337-8.116a.083.083 0 0 1 .013-.116M86.7 15.969l4.006-9.594c.078-.186.268-.286.458-.218.214.077.335.33.236.534-1.526 3.125-3.026 6.202-4.526 9.276a.083.083 0 0 1-.117.035l-.056-.033zm1.012 95.465c.03-.012.064 0 .08.028l4.734 8.416c.328.583-.069 1.568-.357.965-1.454-3.036-2.941-6.054-4.416-9.081-.037-.077-.056-.164-.08-.248a.07.07 0 0 1 .04-.08zm-46.579.59c.038.016.054.06.038.098l-3.98 9.545a.383.383 0 1 1-.696-.316l4.538-9.291a.077.077 0 0 1 .1-.036M11.556 70.121c-3.485.583-6.969 1.16-10.451 1.754-.751.129-.193-.751.565-.831l9.802-1.033a.055.055 0 0 1 .057.035zm41.976 45.47a.06.06 0 0 1 .05.069l-1.527 9.918c-.108.697-1.013 1.208-.86.519.768-3.484 1.515-6.971 2.269-10.458a.06.06 0 0 1 .068-.048m56.413-78.755a.086.086 0 0 1 .026-.116l8.408-5.538a.387.387 0 0 1 .54.112.39.39 0 0 1-.132.549l-8.729 5.022a.083.083 0 0 1-.113-.03zm3.802 44.658s-.001 0 0 0l10.361 3.104c.203.06.322.261.258.463-.065.207-.294.332-.497.258-3.395-1.234-6.746-2.45-10.095-3.669a.07.07 0 0 1-.043-.076zm-1.761 5.311a.08.08 0 0 1 .091-.021c3.156 1.317 6.314 2.632 9.54 3.977.191.08.29.28.214.473-.081.207-.328.318-.527.22l-9.291-4.524a.08.08 0 0 1-.027-.125m1.292-62.878a.38.38 0 0 1 .533.018.395.395 0 0 1-.037.58l-8.067 6.293a.08.08 0 0 1-.112-.01.085.085 0 0 1 .007-.118zm-43.28 92.452a.07.07 0 0 1 .076.057l1.733 10.655a.37.37 0 1 1-.734.098c-.382-3.626-.757-7.182-1.134-10.737a.067.067 0 0 1 .06-.073zM75.965 1.618a.375.375 0 0 1 .464-.304c.195.05.313.243.271.44L74.455 12.37a.066.066 0 0 1-.074.052.07.07 0 0 1-.058-.078l1.642-10.727zm8.947 122.838q0 .002-.002.002l-.304.104a.45.45 0 0 1-.573-.287l-3.308-10.173a.07.07 0 0 1 .043-.087.07.07 0 0 1 .088.04c1.338 3.431 2.675 6.863 4.056 10.401M47.053 14.023l-.002-.001-3.92-10.058c-.076-.192-.008-.4.184-.476.204-.082.46.015.528.224L47.15 13.86a.125.125 0 0 1-.078.156zM11.899 60.848H.473c-.226 0-.4-.228-.384-.453.015-.213.197-.339.41-.324 3.785.258 7.526.512 11.398.777zm87.458-36.965a.09.09 0 0 1-.013-.122c2.061-2.578 4.12-5.157 6.22-7.786a.393.393 0 0 1 .557-.055.387.387 0 0 1 .039.56l-6.685 7.395a.085.085 0 0 1-.118.008m16.754 45.029 10.294.498c.736.036 1.382.892.651.81-3.623-.407-7.245-.8-10.868-1.2a.07.07 0 0 1-.062-.053l-.013-.054zM14.614 104.118a.386.386 0 0 1-.54-.025.39.39 0 0 1 .044-.57l8.076-6.3a.08.08 0 0 1 .112.01c.03.035.028.09-.007.12-2.537 2.232-5.074 4.465-7.685 6.765m25.601-87.684c.039.083-.138.103-.183.023L35.397 8.22c-.333-.592.016-1.61.316-1q2.259 4.601 4.502 9.214m-9.495 5.979a.084.084 0 0 1-.12-.007c-2.228-2.53-4.454-5.061-6.773-7.696-.154-.176-.148-.428.048-.557.168-.11.424-.093.547.065l6.308 8.077a.087.087 0 0 1-.01.118m2.278-13.93c-.112-.184-.067-.415.12-.523.189-.11.446-.049.549.144 1.579 2.97 3.148 5.927 4.72 8.883a.084.084 0 0 1-.03.11.085.085 0 0 1-.117-.028zM7.344 92.993a.376.376 0 0 1-.53-.152.396.396 0 0 1 .171-.53c3.153-1.534 6.274-3.05 9.392-4.569a.073.073 0 0 1 .096.03.075.075 0 0 1-.029.102l-9.1 5.12zm93.426 23.327-.001.001-.21.155a.516.516 0 0 1-.736-.126l-5.414-8.044a.09.09 0 0 1 .021-.122.09.09 0 0 1 .125.017c2.05 2.677 4.101 5.355 6.214 8.117zm-78.443-4.244c-.14.176-.417.181-.584.03-.16-.144-.155-.375-.01-.535l6.683-7.403a.09.09 0 0 1 .122-.009c.037.03.042.084.012.121-2.054 2.572-4.107 5.147-6.223 7.796m89.698-6.457a.384.384 0 0 1 .067.54.393.393 0 0 1-.569.053l-7.399-6.67a.087.087 0 0 1 .113-.133zM1.144 74.078c-.22.044-.43-.143-.446-.367-.013-.193.128-.336.32-.363l10.711-1.513a.07.07 0 0 1 .078.058.07.07 0 0 1-.054.076zm-.007 2.284-.023-.26a.56.56 0 0 1 .46-.603c3.482-.616 6.916-1.222 10.35-1.827a.07.07 0 0 1 .083.055.07.07 0 0 1-.053.083c-3.562.842-7.125 1.681-10.817 2.554zm126.275-20.257.002.002.062.326a.4.4 0 0 1-.354.476l-10.715 1.127a.07.07 0 0 1-.075-.059.07.07 0 0 1 .057-.075c3.632-.592 7.265-1.183 11.022-1.797zm-11.833 18.332a.066.066 0 0 1 .073-.044l10.739 1.643c.204.031.349.184.317.388-.032.21-.241.389-.45.345l-10.629-2.245a.067.067 0 0 1-.05-.087M15.867 22.424c-.175-.14-.178-.417-.029-.583.144-.16.372-.154.532-.01l7.408 6.681a.09.09 0 0 1 .009.122.086.086 0 0 1-.121.012c-2.575-2.053-5.148-4.107-7.799-6.222m1.173 67.172a.086.086 0 0 1-.034.106L8.38 94.954c-.187.114-.42.066-.529-.123-.108-.189-.047-.446.145-.548l8.926-4.728a.084.084 0 0 1 .117.042zm37.2-77.472a.07.07 0 0 1-.08-.052c-.816-3.456-1.63-6.912-2.46-10.418a.38.38 0 0 1 .3-.456.37.37 0 0 1 .436.305l1.857 10.543a.067.067 0 0 1-.053.078m66.833 23.065c.102.192.035.449-.161.544-3.192 1.554-6.289 3.061-9.385 4.57a.075.075 0 0 1-.098-.03.076.076 0 0 1 .029-.104l9.097-5.116c.188-.106.417-.055.518.136m-71.696 91.234s0 .001 0 0c-.121-.243-.388-.523-.339-.725.846-3.451 1.732-6.893 2.721-10.315l-2.03 10.735a.31.31 0 0 1-.173.222zm8.47-114.766-.002-.001c-.583-3.482-1.16-6.963-1.754-10.443-.129-.747.746-.193.826.56l1.036 9.74a.13.13 0 0 1-.083.136zM19.08 34.453a.09.09 0 0 1-.123.031l-8.405-4.965a.377.377 0 0 1-.142-.524.4.4 0 0 1 .56-.133l8.083 5.47a.09.09 0 0 1 .026.121zm52.813 81.705v.001c.699 3.517 1.398 7.034 2.112 10.618a.38.38 0 0 1-.337.445.363.363 0 0 1-.397-.32c-.51-3.608-1.008-7.154-1.507-10.702a.04.04 0 0 1 .038-.043h.09v.001zM74.087.734c.146.242.45.51.413.72-.608 3.592-1.26 7.176-2.015 10.748L73.817.967a.13.13 0 0 1 .06-.096l.208-.138zM31.752 20.861l-6.185-7.519c-.132-.16-.142-.37.011-.51.172-.157.468-.154.604.033l5.675 7.821a.06.06 0 0 1-.006.076zm-4.614-9.12.45-.365a.205.205 0 0 1 .299.045l5.6 8.319a.09.09 0 0 1-.022.122.09.09 0 0 1-.124-.018zm89.798 49.831c3.435-.336 6.869-.684 10.307-.99.187-.017.39.151.59.293a.25.25 0 0 1 .095.292.23.23 0 0 1-.205.147l-10.731.383a.06.06 0 0 1-.063-.069l.005-.054zm-40.651 65.199-.066.012a.693.693 0 0 1-.817-.56l-1.8-10.224a.067.067 0 0 1 .054-.077.07.07 0 0 1 .08.051l2.55 10.796zm26.043-12.073c.135.165.131.394-.032.533-.174.148-.455.132-.589-.054l-5.647-7.795a.094.094 0 0 1 .018-.128.096.096 0 0 1 .131.014c2.02 2.45 4.039 4.902 6.119 7.43M21.176 31.456l-8.086-5.572c-.17-.117-.231-.329-.123-.506.121-.2.402-.268.587-.123l7.693 6.031c.018.014.022.04.009.06zM15.04 42.862a.08.08 0 0 1-.102.045L5.373 39.31a.37.37 0 0 1-.229-.48.394.394 0 0 1 .518-.227l9.335 4.157a.08.08 0 0 1 .043.103zm90.759 55.384h.002l7.633 5.662a.4.4 0 0 1 .074.559.383.383 0 0 1-.559.057l-7.177-6.046a.133.133 0 0 1-.013-.19l.038-.042zm-49.772 29.342v.001c-.16-.233-.48-.489-.452-.698a291 291 0 0 1 1.655-10.831q-.468 5.616-.938 11.231a.28.28 0 0 1-.13.215l-.134.082zM12.953 102.62l-.137-.154a.544.544 0 0 1 .086-.802l7.652-5.544c.042-.03.1-.022.133.018s.027.1-.014.133zm102.579-50.18 10.342-2.828a.37.37 0 0 1 .46.25.39.39 0 0 1-.283.487l-10.372 2.199a.123.123 0 0 1-.146-.094l-.002-.012zm.47 18.35a.053.053 0 0 1 .057-.047l11.231.936a.2.2 0 0 1 .145.084.22.22 0 0 1-.039.285c-.184.166-.373.364-.531.342-3.61-.487-7.212-1.018-10.816-1.54a.055.055 0 0 1-.047-.06M50.43 12.127a.084.084 0 0 1-.115-.052l-2.942-9.4a.37.37 0 0 1 .208-.463.392.392 0 0 1 .529.257l2.368 9.559c.01.04-.01.082-.049.1zM17.925 38.09a.075.075 0 0 1-.1.031l-9.552-4.8a.38.38 0 0 1-.174-.507.386.386 0 0 1 .537-.167l9.26 5.343c.036.02.048.064.029.1m8.164-12.302c-2.383-2.188-4.765-4.378-7.197-6.61-.152-.14-.187-.352-.056-.512.149-.181.44-.213.602-.045l6.742 7.005a.05.05 0 0 1-.001.072zm100.209 52.56a.21.21 0 0 1-.052.261c-.185.16-.38.358-.516.325-3.474-.845-6.938-1.73-10.377-2.728q5.405 1.021 10.809 2.044c.058.01.107.047.136.098m-17.249 30.558a.4.4 0 0 1 .005.574.39.39 0 0 1-.556-.011l-6.76-7.032a.087.087 0 0 1 .001-.122.09.09 0 0 1 .125-.004zm-53.645 6.947-1.19 10.062c-.08.682-.964 1.284-.844.608.632-3.546 1.28-7.089 1.922-10.632a.05.05 0 0 1 .055-.042zM1.494 52.006a.365.365 0 0 1-.304-.454.38.38 0 0 1 .439-.276c3.565.752 7.116 1.503 10.666 2.253a.064.064 0 0 1 .05.072.065.065 0 0 1-.074.054zm114.378 2.317a.073.073 0 0 1 .054-.084c3.453-.813 6.905-1.626 10.411-2.45.211-.05.424.114.458.328.032.2-.107.365-.307.4l-10.534 1.862a.07.07 0 0 1-.082-.056M2.564 80.59a.397.397 0 0 1-.483-.26c-.07-.212.06-.424.277-.478l9.556-2.365a.083.083 0 0 1 .045.16zm123.118-33.243.224.622a.115.115 0 0 1-.081.152l-9.863 2.443a.084.084 0 0 1-.101-.06.083.083 0 0 1 .056-.102zm-9.589 8.736 10.644-2.11a.374.374 0 0 1 .438.307.366.366 0 0 1-.314.421l-10.715 1.511a.02.02 0 0 1-.019-.012zM1.656 78.535l-.08-.265a.46.46 0 0 1 .346-.585c3.469-.737 6.899-1.466 10.327-2.196a.07.07 0 0 1 .033.137c-3.527.966-7.055 1.931-10.625 2.91v-.001zm.103-22.074c-.756-.063-1.337-.933-.587-.822 3.56.528 7.125 1.041 10.682 1.664-3.35-.28-6.7-.56-10.095-.842m73.781 59.128 2.83 10.34c.053.196-.036.393-.23.453-.212.066-.457-.057-.504-.275l-2.216-10.429a.06.06 0 0 1 .042-.07l.076-.021.001.002zm-51.737-1.78-.478-.363a.2.2 0 0 1-.032-.291l6.212-7.359a.095.095 0 0 1 .13-.013c.04.032.048.091.017.133l-5.85 7.893zM76.192 12.674a.06.06 0 0 1-.046-.07l2.03-10.742a.2.2 0 0 1 .095-.136.22.22 0 0 1 .286.06c.152.198.336.402.3.552-.84 3.437-1.721 6.863-2.595 10.292a.06.06 0 0 1-.07.044m31.873 20.821h-.001l7.893-6.033c.164-.125.379-.121.514.035.151.178.133.469-.061.599l-8.128 5.463a.136.136 0 0 1-.176-.02zM96.604 21.32a.096.096 0 0 1-.018-.128l5.523-8a.38.38 0 0 1 .534-.104.4.4 0 0 1 .095.567c-2.022 2.58-4.011 5.116-6 7.65a.094.094 0 0 1-.134.015M71.71.577a.264.264 0 0 1 .35.08c.134.19.28.384.256.554a293 293 0 0 1-1.648 10.765l.933-11.22a.23.23 0 0 1 .109-.179m35.424 31.269.001-.001c2.489-2.047 4.977-4.093 7.512-6.175a.38.38 0 0 1 .538.038c.146.175.124.449-.06.582l-7.756 5.616a.15.15 0 0 1-.192-.015l-.042-.043zm15.385 56.889c.201.076.3.303.219.502a.38.38 0 0 1-.508.205l-9.31-4.143a.08.08 0 0 1-.044-.104.08.08 0 0 1 .105-.047zm-7.39 13.652.001.001-.287.426a.273.273 0 0 1-.395.062l-7.764-6.086a.09.09 0 0 1-.018-.126.093.093 0 0 1 .128-.022zM.034 66.735l10.895-.386a.08.08 0 0 1 .083.076.08.08 0 0 1-.071.082c-1.592.142-3.183.278-4.773.429q-2.664.251-5.326.528c-.49.05-.958.118-.808-.729m39.186 55.827c-.08.212-.352.296-.555.195-.184-.092-.238-.299-.154-.487l4.153-9.305a.08.08 0 0 1 .1-.042.08.08 0 0 1 .047.103c-1.185 3.148-2.37 6.297-3.591 9.536M1.177 69.601c-.54.07-1.267-.503-.746-.658a1.6 1.6 0 0 1 .318-.048c2.662-.16 5.323-.347 7.986-.531.347-.025.362.228.016.272-2.52.32-5.042.642-7.574.965M45.13 14.012a.08.08 0 0 1-.1-.046l-3.983-9.223a.387.387 0 0 1 .196-.503.38.38 0 0 1 .519.22l3.42 9.448a.08.08 0 0 1-.052.104m16.42-2.948a.065.065 0 0 1-.062-.059c-.335-3.414-.68-6.828-.985-10.244-.018-.188.148-.392.288-.594a.254.254 0 0 1 .291-.1.23.23 0 0 1 .151.208l.386 10.721a.066.066 0 0 1-.068.068zm40.713 15.181a.09.09 0 0 1-.002-.123l6.604-7.188a.4.4 0 0 1 .581-.002.39.39 0 0 1-.015.557l-7.04 6.759a.09.09 0 0 1-.128-.003M1.512 49.467q0-.002.002-.002c.26-.117.556-.384.775-.33 3.428.837 6.845 1.714 10.241 2.7L1.92 49.832a.5.5 0 0 1-.346-.252zM49.42 1.743h.002l.166-.039a.6.6 0 0 1 .719.459l2.167 10.22a.067.067 0 0 1-.051.08.07.07 0 0 1-.08-.047c-.967-3.529-1.933-7.058-2.924-10.67zm35.694 13.35a.08.08 0 0 1-.028-.095l3.591-9.518c.075-.196.272-.304.469-.232.207.076.327.319.238.52L85.24 15.06a.083.083 0 0 1-.126.033m10.028-6.897c.213.09.312.353.197.553-1.81 3.13-3.586 6.202-5.36 9.275a.07.07 0 0 1-.093.027.073.073 0 0 1-.032-.097l4.805-9.57a.373.373 0 0 1 .483-.188M53.802.829c.445 0 .822.328.885.768l1.44 10.236a.066.066 0 0 1-.055.075.07.07 0 0 1-.078-.054L53.8.83zm66.181 94.074-.301.549a.16.16 0 0 1-.223.063l-9.109-5.257a.08.08 0 0 1-.033-.107.08.08 0 0 1 .11-.037zm-50.567 32.963h-.001c-.192-.178-.537-.343-.551-.536-.274-3.477-.509-6.955-.75-10.434-.005-.092.147-.088.158.004l1.353 10.614a.3.3 0 0 1-.103.263l-.106.088zm-46.47-28.575-6.91 6.53a.38.38 0 0 1-.565-.029.403.403 0 0 1 .046-.557l7.188-5.998a.146.146 0 0 1 .198.01zm64.053 24.36q0 .002-.002.002l-.265.124a.46.46 0 0 1-.623-.26l-3.41-9.405a.08.08 0 0 1 .048-.103.08.08 0 0 1 .104.043L87 123.651zm-6.476 1.722a.39.39 0 0 1-.245.479.376.376 0 0 1-.492-.27l-2.367-9.548a.085.085 0 0 1 .06-.102.08.08 0 0 1 .102.055c.97 3.099 1.944 6.2 2.942 9.386m23.335-110.821c.131-.177.398-.2.572-.064.177.138.188.383.044.554l-6.079 7.202a.096.096 0 0 1-.133.013.1.1 0 0 1-.018-.135zm-44.196-3.073v-.001L58.26.476a.2.2 0 0 1 .048-.155.21.21 0 0 1 .27-.031c.201.126.437.25.449.391.273 3.502.505 7.008.741 10.512.004.053-.038.109-.107.285zm52.493 10.461c.119.14.229.27.357.418a.254.254 0 0 1-.03.36l-7.314 6.112a.1.1 0 0 1-.134-.149c2.364-2.237 4.728-4.476 7.122-6.74zM4.613 86.918a.381.381 0 1 1-.283-.709l9.48-3.435a.08.08 0 0 1 .101.046.08.08 0 0 1-.042.101zm7.175-59.236a.4.4 0 0 1-.099-.574.383.383 0 0 1 .54-.074c2.532 1.847 5.03 3.67 7.53 5.491a.102.102 0 0 1-.114.168zm10.297 2.111s0 .001 0 0l-7.633-5.66a.394.394 0 0 1-.08-.55.39.39 0 0 1 .568-.066l7.175 6.046a.13.13 0 0 1 .009.192zm6.573-6.753-6.524-6.9a.38.38 0 0 1 .02-.556.4.4 0 0 1 .562.037c2.039 2.44 4.046 4.845 6.053 7.25a.054.054 0 0 1-.005.074zm6.102-4.607a.1.1 0 0 1-.134-.026l-5.417-7.602c-.121-.17-.11-.388.054-.517.183-.144.473-.114.596.084 1.666 2.677 3.3 5.3 4.931 7.924a.1.1 0 0 1-.03.137m12.667 107.353a.27.27 0 0 1-.333-.114c-.114-.188-.238-.377-.197-.52.886-3.144 1.81-6.274 2.874-9.376l-2.202 9.839a.25.25 0 0 1-.142.171m58.34-13.883c.163.172.122.46-.07.6-.167.121-.385.081-.517-.077l-6.025-7.219a.1.1 0 0 1 .01-.141c.04-.035.1-.032.137.007zm10.96-52.059c-.068 0-.031-.126.037-.135l10.763-1.368a.2.2 0 0 1 .15.046.21.21 0 0 1 .036.27c-.123.2-.244.438-.382.448-3.533.273-7.069.502-10.604.739m-72.305 54.007a.084.084 0 0 1 .035.098c-1.06 3.138-2.117 6.275-3.194 9.466a.373.373 0 0 1-.472.242.386.386 0 0 1-.24-.506l3.75-9.26a.083.083 0 0 1 .12-.04zM12.626 48.04l-9.52-2.481a.37.37 0 0 1-.277-.448.39.39 0 0 1 .492-.284l9.317 3.043a.035.035 0 0 1 .024.044q-.019.062-.036.125zm87.68-36.152c.115-.18.329-.25.512-.139.195.12.271.396.136.58l-5.477 7.51a.1.1 0 0 1-.165-.113zM12.22 49.79a.076.076 0 0 1-.091.058l-9.825-2.2a.2.2 0 0 1-.115-.075.22.22 0 0 1 .04-.292c.188-.16.385-.349.517-.31 3.148.883 6.283 1.81 9.42 2.729a.077.077 0 0 1 .053.09zm103.889 50.57a.393.393 0 1 1-.444.65l-7.532-5.494a.103.103 0 0 1-.026-.138.1.1 0 0 1 .138-.03zM86.628 4.63a.387.387 0 0 1 .501-.232c.2.075.293.297.213.496l-3.754 9.27a.08.08 0 0 1-.102.046.083.083 0 0 1-.052-.105l3.194-9.476zM30.9 107.26a.104.104 0 0 1 .021.141l-5.129 7.449c-.119.172-.332.234-.511.126-.204-.123-.272-.408-.125-.594 1.887-2.394 3.742-4.751 5.598-7.105a.105.105 0 0 1 .146-.017m87.613-10.622c.197.106.256.369.138.56a.38.38 0 0 1-.532.114c-2.617-1.641-5.194-3.259-7.771-4.874a.1.1 0 0 1-.035-.135.1.1 0 0 1 .137-.04zM80.361 2.267c.585-.003.819.122.644.707-.926 3.1-1.82 6.21-2.878 9.286l2.232-9.991zm44.375 43.049c.204-.071.432.057.498.263.067.206-.056.408-.264.467l-9.424 2.686a.087.087 0 0 1-.106-.057.085.085 0 0 1 .053-.106zm.983 35.188a.263.263 0 0 1-.079.34c-.181.13-.365.274-.497.237-3.166-.893-6.319-1.827-9.44-2.896l9.863 2.206c.065.015.12.056.153.113m-77.848 34.782a.086.086 0 0 1 .062.104l-2.462 9.459a.376.376 0 0 1-.475.271.39.39 0 0 1-.26-.488l3.032-9.29a.085.085 0 0 1 .103-.056m-36.234-14.465-.002-.001-.155-.204a.52.52 0 0 1 .123-.75L19.1 94.84a.103.103 0 0 1 .139.024.1.1 0 0 1-.02.138c-2.508 1.927-5.02 3.853-7.58 5.819l-.002.001zm81.503 8.803a.1.1 0 0 1 .135.025l5.412 7.593c.124.173.105.398-.065.525-.183.136-.463.101-.583-.092l-4.928-7.916a.1.1 0 0 1 .03-.135zm-67.893-7.437a.095.095 0 0 1 .005.135l-6.206 6.779a.397.397 0 0 1-.594-.002.406.406 0 0 1 .02-.557l6.64-6.355a.1.1 0 0 1 .135 0M83.278 3.045v.003l-3.157 9.653a.085.085 0 0 1-.163-.047l2.406-9.23A.607.607 0 0 1 83.139 3zM33.053 120.031v-.001l-.567-.289a.15.15 0 0 1-.062-.212c1.77-3.061 3.523-6.096 5.277-9.132a.08.08 0 0 1 .107-.031.08.08 0 0 1 .035.107l-4.79 9.557zm90.703-33.214.001.002-.187.44a.317.317 0 0 1-.411.171l-9.316-3.772a.083.083 0 0 1-.048-.103.084.084 0 0 1 .106-.053l9.854 3.315zM4.526 41.357a.38.38 0 0 1-.243-.478.39.39 0 0 1 .51-.24c3.117 1.263 6.2 2.51 9.28 3.757.04.017.06.063.046.104a.083.083 0 0 1-.104.051c-3.147-1.059-6.294-2.12-9.49-3.194zM.763 54.158c-.098-.663.19-.805.779-.694 3.11.583 6.223 1.144 9.323 1.856l-10.1-1.16zm30.365 64.738-.002.001-.431-.232a.29.29 0 0 1-.11-.413l4.947-7.875a.1.1 0 0 1 .137-.035.1.1 0 0 1 .04.138zM96.782 9.113l.522.344a.19.19 0 0 1 .056.258l-4.981 7.921a.1.1 0 0 1-.172-.1c1.506-2.77 3.01-5.543 4.575-8.423M17.585 35.755a.105.105 0 0 1-.141.039L9.39 31.406a.387.387 0 0 1-.156-.525.39.39 0 0 1 .548-.144l7.767 4.874c.048.03.064.095.035.144zM3.165 82.727a.384.384 0 0 1-.488-.227.387.387 0 0 1 .255-.508l8.893-2.52a.097.097 0 0 1 .12.064.096.096 0 0 1-.06.118zm29.025 25.98a.12.12 0 0 1 .04.166l-4.642 7.285c-.116.182-.337.25-.52.134-.192-.121-.264-.393-.13-.577l5.098-6.976a.116.116 0 0 1 .154-.032m87.309-75.618c.188-.115.42-.077.532.112.115.193.058.465-.141.57l-8.002 4.22a.1.1 0 0 1-.136-.041.104.104 0 0 1 .037-.138zm-18.048-8.899h.001l5.77-6.75c.135-.159.353-.196.518-.07.184.143.22.427.059.593l-6.138 6.34a.07.07 0 0 1-.096.002l-.114-.113v-.001zM5.092 89.158c-.092-.23-.165-.42-.25-.634a.13.13 0 0 1 .072-.168c2.882-1.153 5.708-2.284 8.532-3.416.052-.02.11.004.132.055a.104.104 0 0 1-.05.136l-8.436 4.026zm111.921-16.351a.076.076 0 0 1 .084-.079l8.692 1.006c.727.085 1.312.976.592.846-3.103-.561-6.203-1.133-9.305-1.701a.08.08 0 0 1-.063-.072M3.865 84.84a.39.39 0 0 1-.51-.23.39.39 0 0 1 .25-.503l8.71-2.8a.094.094 0 0 1 .063.177l-8.513 3.357zm91.241 35.06-.437.244a.294.294 0 0 1-.403-.119L90 111.963a.104.104 0 0 1 .04-.14.106.106 0 0 1 .143.036zM38.981 5.583a.385.385 0 0 1 .198-.528.4.4 0 0 1 .519.214c1.117 2.788 2.216 5.531 3.317 8.274a.105.105 0 0 1-.055.135.103.103 0 0 1-.136-.05zm71.574 101.689a.38.38 0 0 1 .059.533.4.4 0 0 1-.584.046l-6.3-6.101a.113.113 0 0 1-.005-.159.113.113 0 0 1 .158-.01zm4.308-62.499 8.388-3.642a.38.38 0 0 1 .495.167.398.398 0 0 1-.208.558l-8.62 3.093a.017.017 0 0 1-.023-.013zm-25.765 78.071-.3.119a.49.49 0 0 1-.637-.275l-3.28-8.184a.105.105 0 0 1 .056-.135c.051-.022.11 0 .134.051zs0 .001 0 0m26.328-76.154a.095.095 0 0 1 .055-.122l8.549-3.36a.376.376 0 0 1 .5.216.397.397 0 0 1-.24.513l-8.743 2.813a.097.097 0 0 1-.121-.06M10.708 98.744a.405.405 0 0 1-.575-.124.39.39 0 0 1 .136-.536l7.353-4.548a.11.11 0 0 1 .146.032.107.107 0 0 1-.026.147c-2.32 1.66-4.64 3.319-7.034 5.029m9.699 12.174-.001-.001-.165-.155a.575.575 0 0 1-.017-.818l5.974-6.165a.114.114 0 0 1 .159-.006.12.12 0 0 1 .01.164c-1.964 2.302-3.93 4.602-5.958 6.98zm8.821 6.832h-.002l-.154-.099a.625.625 0 0 1-.176-.877l4.61-6.767a.113.113 0 0 1 .154-.032.115.115 0 0 1 .038.155c-1.472 2.51-2.946 5.021-4.468 7.619zm93.191-78.684c.209-.1.46.008.54.224a.387.387 0 0 1-.224.496l-8.297 3.319a.103.103 0 0 1-.133-.055.1.1 0 0 1 .05-.132c2.66-1.272 5.322-2.543 8.064-3.852m-12.268-4.58a.11.11 0 0 1 .017-.162l7.021-5.024a.38.38 0 0 1 .541.076.407.407 0 0 1-.102.58l-7.339 4.55a.11.11 0 0 1-.138-.02M17.032 20.508s-.001 0 0 0l.375-.41a.246.246 0 0 1 .35-.01l6.415 6.212a.11.11 0 0 1 .006.154.114.114 0 0 1-.158.012z"/></g><defs><clipPath id="a"><path fill="#fff" d="M0 0h128v128H0z"/></clipPath></defs></svg>