<svg xmlns="http://www.w3.org/2000/svg" width="50" height="15" fill="none"><path fill="#1D1D1B" d="M42.317 14.917H7.774c-3.882 0-7.032-3.138-7.032-7.007S3.892.894 7.774.894h34.543c3.883 0 7.033 3.138 7.033 7.016 0 3.869-3.15 7.007-7.033 7.007"/><path fill="url(#a)" d="M40.365 10.976c1.7 0 3.077-1.373 3.077-3.066a3.07 3.07 0 0 0-3.077-3.066 3.07 3.07 0 0 0-3.078 3.066 3.07 3.07 0 0 0 3.078 3.066"/><path fill="url(#b)" d="M40.365 9.658c.97 0 1.755-.783 1.755-1.749s-.786-1.749-1.755-1.749c-.97 0-1.756.783-1.756 1.75 0 .965.786 1.748 1.756 1.748"/><path fill="url(#c)" d="M41.904 7.91a1.54 1.54 0 0 1-3.078 0c0-.844.682-1.533 1.539-1.533s1.539.679 1.539 1.533"/><path fill="url(#d)" d="M41.904 7.91a1.54 1.54 0 0 1-3.078 0c0-.844.682-1.533 1.539-1.533s1.539.679 1.539 1.533" style="mix-blend-mode:multiply"/><path fill="url(#e)" d="M41.76 8.712a.55.55 0 0 0-.548-.545.55.55 0 0 0-.547.545.55.55 0 0 0 .547.546.55.55 0 0 0 .547-.546z" style="mix-blend-mode:screen"/><defs><linearGradient id="a" x1="40.365" x2="40.365" y1="10.78" y2="4.751" gradientUnits="userSpaceOnUse"><stop stop-color="#666"/><stop offset="1" stop-color="#010104"/></linearGradient><linearGradient id="b" x1="40.375" x2="40.375" y1="6.263" y2="9.71" gradientUnits="userSpaceOnUse"><stop stop-color="#0B131C"/><stop offset="1" stop-color="#354039"/></linearGradient><linearGradient id="c" x1="41.449" x2="39.289" y1="8.99" y2="6.822" gradientUnits="userSpaceOnUse"><stop stop-color="#231F20"/><stop offset=".08" stop-color="#212226"/><stop offset=".2" stop-color="#1F2C37"/><stop offset=".33" stop-color="#1A3C53"/><stop offset=".47" stop-color="#13537B"/><stop offset=".62" stop-color="#0A70AE"/><stop offset=".78" stop-color="#0095EE"/><stop offset=".8" stop-color="#0387D6"/><stop offset=".84" stop-color="#0D689F"/><stop offset=".88" stop-color="#154D71"/><stop offset=".91" stop-color="#1B394E"/><stop offset=".95" stop-color="#1F2A34"/><stop offset=".98" stop-color="#222225"/><stop offset="1" stop-color="#231F20"/></linearGradient><radialGradient id="d" cx="0" cy="0" r="1" gradientTransform="matrix(1.53868 0 0 1.53297 40.365 7.91)" gradientUnits="userSpaceOnUse"><stop stop-color="#231F20"/><stop offset=".2" stop-color="#165068"/><stop offset=".38" stop-color="#0C78A1"/><stop offset=".54" stop-color="#0594CB"/><stop offset=".66" stop-color="#01A6E4"/><stop offset=".73" stop-color="#00ADEE"/><stop offset=".76" stop-color="#01A5E3"/><stop offset=".81" stop-color="#0693C8"/><stop offset=".87" stop-color="#0D749B"/><stop offset=".94" stop-color="#184A5E"/><stop offset="1" stop-color="#231F20"/></radialGradient><radialGradient id="e" cx="0" cy="0" r="1" gradientTransform="matrix(.54731 0 0 .54529 41.212 8.712)" gradientUnits="userSpaceOnUse"><stop stop-color="#CCC"/><stop offset=".02" stop-color="#C4C4C4"/><stop offset=".22" stop-color="#898989"/><stop offset=".41" stop-color="#585858"/><stop offset=".59" stop-color="#313131"/><stop offset=".75" stop-color="#161616"/><stop offset=".89" stop-color="#050505"/><stop offset="1"/></radialGradient></defs></svg>