<svg xmlns="http://www.w3.org/2000/svg" width="126" height="42" fill="none"><g fill="#3D3D3D" clip-path="url(#a)"><path d="M18.327 8.468c6.133-3.44 14.895-.62 19.573 6.305 4.679 6.923 3.502 15.322-2.628 18.762 5.212-2.923 6.212-10.066 2.235-15.95S26.079 9.303 20.87 12.226c-5.213 2.926-6.212 10.066-2.239 15.953 3.977 5.883 11.425 8.282 16.637 5.356-6.133 3.443-14.895.62-19.573-6.304-4.675-6.92-3.498-15.323 2.632-18.763"/><path d="M22.886 10.693c5.024-2.82 12.204-.507 16.034 5.165 3.834 5.67 2.868 12.554-2.156 15.374 4.271-2.396 5.09-8.249 1.831-13.068-3.255-4.819-9.36-6.787-13.628-4.39-4.272 2.395-5.09 8.248-1.831 13.07s9.36 6.787 13.631 4.388c-5.024 2.82-12.204.51-16.034-5.165-3.833-5.671-2.868-12.557 2.156-15.374z"/><path d="M29.943 10.467c5.326.335 10.203 4.963 10.89 10.336.685 5.374-3.076 9.457-8.402 9.125 4.528.284 7.725-3.187 7.143-7.756-.585-4.569-4.726-8.502-9.254-8.786-4.529-.284-7.729 3.187-7.143 7.756.585 4.57 4.73 8.502 9.254 8.786-5.325-.336-10.199-4.963-10.887-10.336s3.073-9.457 8.402-9.125z"/><path d="M35.532 12.64c4.213 2.53 6.202 7.674 4.446 11.486-1.76 3.813-6.599 4.854-10.812 2.324 3.583 2.15 7.697 1.267 9.19-1.974 1.495-3.242-.199-7.612-3.779-9.765-3.583-2.15-7.697-1.266-9.19 1.975-1.495 3.241.196 7.612 3.78 9.761-4.214-2.53-6.203-7.673-4.443-11.486 1.759-3.813 6.598-4.853 10.811-2.324z"/></g><path fill="#3D3D3D" d="M107.649 29.408q-1.137 0-1.925-.428a3.03 3.03 0 0 1-1.196-1.157 3.2 3.2 0 0 1-.399-1.586q0-.758.253-1.361a2.7 2.7 0 0 1 .778-1.05q.525-.448 1.361-.73a13 13 0 0 1 1.478-.37q.856-.165 1.848-.3 1.002-.147 2.091-.312l-.836.477q.01-1.09-.487-1.605-.495-.516-1.672-.515-.71 0-1.372.33-.66.33-.923 1.138l-2.14-.671a3.98 3.98 0 0 1 1.478-2.14q1.099-.807 2.957-.807 1.4 0 2.46.457a3.05 3.05 0 0 1 1.585 1.498q.282.555.341 1.138.058.573.058 1.254v6.448h-2.052V26.84l.34.37q-.71 1.137-1.663 1.673-.942.525-2.363.525m.467-1.867q.798 0 1.362-.282.564-.284.894-.69.341-.41.457-.77.185-.446.205-1.02.029-.585.029-.944l.719.214q-1.06.165-1.818.292-.759.126-1.303.243a8 8 0 0 0-.963.243 3 3 0 0 0-.691.34 1.5 1.5 0 0 0-.437.448 1.17 1.17 0 0 0-.146.593q0 .39.194.69.195.292.564.468.38.175.934.175m-8.314 1.575v-5.057q0-.495-.068-1.099a3.8 3.8 0 0 0-.321-1.157 2.2 2.2 0 0 0-.74-.924q-.485-.36-1.322-.36-.447 0-.885.146a2 2 0 0 0-.797.506q-.35.35-.564.972-.214.613-.214 1.576l-1.39-.593q0-1.343.515-2.432a4.14 4.14 0 0 1 1.536-1.73q1.011-.652 2.49-.652 1.167 0 1.925.389.759.39 1.206.992.448.603.661 1.283.215.68.273 1.294.068.604.068.982v5.864zm-7.284 0V18.613h2.09v3.258h.283v7.245zM87.28 17.018V14.87h2.344v2.15h-2.343zm0 12.098V18.613h2.344v10.503zm-5.074 0v-6.38q0-1.08-.535-1.682-.535-.613-1.45-.613a1.96 1.96 0 0 0-1.01.263 1.8 1.8 0 0 0-.71.758q-.263.497-.263 1.187l-1.04-.613q-.01-1.088.486-1.916a3.55 3.55 0 0 1 1.361-1.303 3.9 3.9 0 0 1 1.906-.466q1.74 0 2.665 1.05.933 1.041.933 2.742v6.973zm-12.633 0V18.613h2.072v3.258h.291v7.245zm6.331 0v-6.35q0-1.099-.535-1.712t-1.459-.613q-.894 0-1.439.613-.534.613-.535 1.595l-1.05-.7q0-1.022.506-1.838a3.6 3.6 0 0 1 1.361-1.284 3.94 3.94 0 0 1 1.936-.476q1.176 0 1.964.505.797.496 1.186 1.362.4.855.4 1.935v6.963zm-14.548.301q-1.167 0-1.925-.389a3.4 3.4 0 0 1-1.206-.991 4.3 4.3 0 0 1-.662-1.284 7 7 0 0 1-.282-1.284 11 11 0 0 1-.058-.992v-5.864h2.373v5.057q0 .486.068 1.099.068.602.311 1.167.253.554.74.914.495.36 1.332.36.447 0 .885-.146a2 2 0 0 0 .787-.496q.36-.36.574-.982t.214-1.576l1.39.594q0 1.342-.525 2.43a4.14 4.14 0 0 1-1.526 1.742q-1.011.64-2.49.641m3.433-.301v-3.258h-.282v-7.245h2.353v10.503zm-17.547 0V15.112h2.343v11.806h6.185v2.198z"/><defs><clipPath id="a"><path fill="#fff" d="M12.834 7h28.435v28H12.834z"/></clipPath></defs></svg>